<svg width="1000" height="1000" xmlns="http://www.w3.org/2000/svg" xmlns:svg="http://www.w3.org/2000/svg" version="1.1">
 <g class="layer">
  <title>Layer 1</title>
  <path d="m0,0l1000,0l0,1000l-1000,0l0,-1000z" id="svg_1" transform="translate(0)"/>
  <path d="m0,0l1000,0l0,1000l-1000,0l0,-1000zm190,100l-15,3l-14,5l-15,8l-10,8l-8,7l-12,16l-8,16l-4,13l-2,10l0,630l4,16l7,17l8,12l11,13l14,11l11,6l14,6l12,3l7,1l622,0l18,-4l13,-5l14,-8l10,-8l11,-11l10,-15l6,-13l4,-13l2,-12l0,-624l-4,-18l-5,-13l-8,-14l-8,-10l-11,-11l-15,-10l-13,-6l-13,-4l-11,-2l-622,0z" fill="#484848" id="svg_2"/>
  <path d="m0,0l29,0l22,3l21,6l18,8l16,10l14,12l10,10l10,13l10,16l8,18l6,19l4,22l1,10l0,33l-3,23l-6,23l-9,21l-9,15l-9,12l-11,12l-12,11l-15,10l-15,8l-21,7l-20,4l-9,1l-31,0l-20,-3l-19,-5l-21,-9l-16,-10l-10,-8l-10,-9l-9,-10l-10,-14l-9,-17l-5,-14l38,0l10,18l12,15l8,7l13,9l14,7l17,5l14,2l25,0l22,-3l17,-5l16,-8l11,-7l12,-11l8,-9l10,-16l7,-16l5,-17l3,-22l0,-27l-3,-21l-4,-15l-6,-15l-6,-11l-8,-11l-9,-10l-9,-8l-14,-9l-14,-6l-17,-5l-12,-2l-11,-1l-23,0l-18,3l-15,5l-12,6l-13,9l-14,14l-7,10l-9,16l-38,0l6,-16l10,-18l10,-13l9,-10l11,-10l18,-12l16,-8l17,-6l18,-4l15,-2z" fill="#FEFEFE" id="svg_3" transform="translate(663,324)"/>
  <path d="m0,0l31,0l21,3l16,4l20,8l17,10l13,10l8,7l7,8l9,11l10,17l6,13l2,5l0,3l-38,0l-7,-14l-10,-14l-11,-11l-11,-8l-17,-9l-17,-5l-14,-2l-26,0l-22,3l-16,5l-11,5l-12,7l-9,7l-6,5l-7,8l-9,13l-8,16l-6,18l-3,14l-1,8l0,37l3,18l6,20l8,16l8,12l9,10l0,2l4,2l8,7l13,8l16,7l20,5l17,2l23,0l19,-3l15,-5l15,-8l13,-10l9,-9l10,-14l7,-14l38,0l-1,5l-7,16l-7,12l-8,11l-9,10l-11,11l-11,8l-13,8l-17,8l-20,6l-16,3l-10,1l-28,0l-22,-3l-19,-5l-18,-8l-14,-8l-14,-11l-17,-17l-12,-17l-11,-21l-6,-17l-5,-21l-2,-15l0,-41l3,-21l6,-22l8,-19l10,-17l10,-13l9,-10l8,-7l13,-10l16,-9l16,-7l18,-5l21,-3z" fill="#FEFEFE" id="svg_4" transform="translate(307,324)"/>
  <path d="m0,903l1,0l2,15l2,8l1,1l2,9l5,12l7,10l12,14l11,9l16,9l14,5l13,3l12,1l0,1l-98,0l0,-97z" fill="#ffffff" id="svg_5"/>
  <path d="m902,0l98,0l0,98l-1,0l-3,-21l-4,-14l-6,-12l-6,-9l-12,-14l-10,-8l-11,-7l-20,-8l-13,-3l-12,-1l0,-1z" fill="#ffffff" id="svg_6" transform="matrix(1 0 0 1 0 0)"/>
  <path d="m999,901l1,0l0,99l-98,0l0,-1l18,-2l15,-5l10,-4l13,-8l7,-5l5,-5l9,-10l9,-14l4,-10l1,-5l2,0l2,-11l2,-19z" fill="#ffffff" id="svg_7"/>
  <path d="m0,0l100,0l0,1l-20,2l-17,5l-14,7l-5,2l0,2l-5,1l-6,5l-5,5l-7,8l-1,3l-4,4l-8,16l-5,17l-2,16l-1,0l0,-96l0,2z" fill="#ffffff" id="svg_8" transform="matrix(1 0 0 1 0 0)"/>
 </g>
</svg>